<?xml version="1.0" standalone="no"?>
<!DOCTYPE svg PUBLIC "-//W3C//DTD SVG 20010904//EN"
 "http://www.w3.org/TR/2001/REC-SVG-20010904/DTD/svg10.dtd">
<svg version="1.0" xmlns="http://www.w3.org/2000/svg"
 width="1414.000000pt" height="2000.000000pt" viewBox="0 0 1414.000000 2000.000000"
 preserveAspectRatio="xMidYMid meet">

<g transform="translate(0.000000,2000.000000) scale(0.100000,-0.100000)"
fill="#000000" stroke="none">
<path d="M6065 18930 c-11 -5 -32 -9 -47 -9 -45 -1 -108 -59 -131 -119 -19
-51 -20 -55 -3 -107 12 -40 27 -61 54 -82 39 -30 105 -63 125 -63 17 0 85 -35
108 -56 27 -24 25 -85 -2 -110 -17 -15 -36 -19 -98 -19 -70 1 -80 3 -120 33
l-45 33 -35 -35 -35 -36 29 -30 c52 -54 102 -71 209 -71 139 0 202 38 232 139
14 51 14 60 -1 109 -18 57 -67 108 -115 120 -14 3 -34 12 -45 19 -11 8 -29 14
-40 14 -11 1 -38 13 -60 28 -33 23 -41 35 -43 65 -3 32 1 39 30 57 18 11 45
20 59 20 33 0 90 -20 107 -37 7 -7 20 -13 28 -13 17 0 74 53 74 68 0 15 -82
65 -120 73 -83 17 -96 18 -115 9z"/>
<path d="M7585 18898 c-3 -7 -6 -49 -7 -93 l-3 -80 -30 -3 c-73 -6 -75 -8 -75
-62 l0 -50 43 0 c24 0 48 -5 55 -12 8 -8 12 -62 12 -176 l0 -163 53 3 52 3 5
170 5 170 53 3 52 3 0 48 c0 53 -9 61 -77 61 l-33 0 0 79 c0 44 -3 86 -6 95
-8 20 -92 23 -99 4z"/>
<path d="M6515 18704 c-83 -43 -125 -117 -125 -220 1 -87 34 -154 97 -197 37
-24 52 -28 113 -28 50 0 79 5 97 16 23 15 26 15 43 0 12 -11 32 -15 61 -13
l44 3 0 225 0 225 -38 3 c-24 2 -48 -3 -64 -13 -22 -15 -27 -15 -58 -1 -42 20
-131 20 -170 0z m197 -122 c29 -26 31 -34 31 -89 0 -76 -27 -118 -83 -127 -64
-10 -99 3 -131 47 -33 45 -37 83 -13 129 27 51 53 67 111 68 44 0 58 -5 85
-28z"/>
<path d="M6974 18707 c-2 -7 -3 -109 -2 -227 l3 -215 50 0 50 0 5 145 c6 161
13 184 67 199 50 14 95 0 120 -38 21 -31 23 -45 23 -173 l0 -139 53 3 52 3 3
157 c3 177 -5 205 -69 263 -42 37 -128 47 -180 21 -40 -20 -53 -20 -69 -1 -16
19 -98 21 -106 2z"/>
<path d="M7990 18713 c-41 -16 -101 -70 -124 -113 -32 -59 -37 -163 -9 -213
52 -94 113 -128 229 -128 84 0 111 9 155 51 16 14 14 17 -13 46 l-29 31 -50
-23 c-59 -29 -65 -29 -120 -5 -45 20 -75 54 -64 71 4 6 68 10 148 10 193 0
208 12 171 127 -32 100 -108 153 -214 152 -36 0 -72 -3 -80 -6z m145 -101 c40
-33 49 -50 35 -67 -9 -11 -34 -15 -99 -15 -105 0 -121 8 -101 45 27 50 125 72
165 37z"/>
<path d="M7812 2741 c-8 -4 -12 -19 -10 -32 4 -34 63 -41 73 -9 12 37 -28 63
-63 41z"/>
<path d="M7962 2720 c-12 -12 -22 -32 -22 -45 0 -16 -6 -25 -15 -25 -10 0 -15
-10 -15 -29 0 -16 6 -31 15 -35 12 -4 15 -24 15 -91 l0 -85 30 0 30 0 0 86 c0
77 2 86 20 91 25 7 29 63 5 63 -8 0 -15 7 -15 15 0 8 7 15 15 15 10 0 15 10
15 30 0 26 -4 30 -28 30 -16 0 -38 -9 -50 -20z"/>
<path d="M7680 2565 l0 -155 35 0 35 0 0 155 0 155 -35 0 -35 0 0 -155z"/>
<path d="M5680 2675 c0 -16 -6 -25 -15 -25 -10 0 -15 -10 -15 -30 0 -20 5 -30
15 -30 12 0 15 -14 15 -64 0 -79 17 -105 78 -113 41 -6 42 -5 42 25 0 24 -5
31 -22 34 -20 3 -23 10 -26 61 -3 55 -2 57 23 57 21 0 25 5 25 30 0 25 -4 30
-25 30 -20 0 -25 5 -25 25 0 22 -4 25 -35 25 -31 0 -35 -3 -35 -25z"/>
<path d="M6670 2675 c0 -16 -6 -25 -15 -25 -10 0 -15 -10 -15 -30 0 -20 5 -30
15 -30 12 0 15 -14 15 -64 0 -79 17 -105 78 -113 41 -6 42 -5 42 25 0 24 -5
31 -22 34 -20 3 -23 10 -26 61 -3 55 -2 57 23 57 21 0 25 5 25 30 0 25 -4 30
-25 30 -20 0 -25 5 -25 25 0 22 -4 25 -35 25 -31 0 -35 -3 -35 -25z"/>
<path d="M7520 2675 c0 -16 -6 -25 -15 -25 -10 0 -15 -10 -15 -29 0 -16 6 -31
15 -35 11 -4 15 -22 15 -69 0 -77 13 -97 68 -104 42 -6 42 -5 42 26 0 24 -4
31 -19 31 -23 0 -31 19 -31 76 0 40 2 44 25 44 21 0 25 5 25 30 0 25 -4 30
-25 30 -20 0 -25 5 -25 25 0 21 -5 25 -30 25 -25 0 -30 -4 -30 -25z"/>
<path d="M4876 2629 c-19 -15 -26 -30 -26 -54 0 -37 23 -56 88 -70 22 -5 32
-12 32 -26 0 -23 -48 -27 -56 -4 -8 20 -74 21 -74 1 0 -8 14 -26 31 -40 60
-51 169 -23 169 44 0 34 -19 50 -79 70 -28 9 -46 21 -46 30 0 21 43 26 51 6 7
-18 74 -23 74 -5 0 6 -13 24 -29 40 -37 36 -94 40 -135 8z"/>
<path d="M5131 2636 c-33 -18 -50 -53 -51 -104 0 -49 21 -96 49 -112 28 -14
74 -12 97 5 25 19 34 19 34 0 0 -10 10 -15 30 -15 l30 0 0 120 0 120 -30 0
c-20 0 -30 -5 -30 -15 0 -19 -9 -19 -34 0 -24 18 -63 19 -95 1z m100 -56 c22
-12 27 -78 7 -98 -32 -32 -88 -1 -88 48 0 49 38 72 81 50z"/>
<path d="M5380 2530 l0 -120 35 0 35 0 0 71 c0 82 11 109 45 109 38 0 55 -35
55 -112 l0 -68 30 0 30 0 0 93 c0 67 -4 99 -15 114 -21 30 -76 39 -114 20 -26
-13 -31 -13 -31 -1 0 9 -11 14 -35 14 l-35 0 0 -120z"/>
<path d="M5882 2630 c-40 -25 -55 -61 -49 -119 6 -57 40 -91 97 -98 51 -7 102
16 119 53 10 23 9 24 -27 24 -20 0 -45 -7 -55 -15 -25 -18 -66 -2 -67 28 0 4
36 7 80 7 l80 0 0 30 c0 44 -19 77 -55 95 -44 20 -83 19 -123 -5z m106 -64 c3
-13 -5 -16 -42 -16 -50 0 -58 11 -25 34 25 17 62 7 67 -18z"/>
<path d="M6110 2530 l0 -120 35 0 35 0 0 78 c0 82 9 102 45 102 36 0 45 -20
45 -102 l0 -78 36 0 36 0 -4 96 c-3 91 -5 97 -31 120 -32 27 -73 31 -104 9
-19 -13 -22 -13 -27 0 -3 9 -18 15 -36 15 l-30 0 0 -120z"/>
<path d="M6432 2630 c-40 -25 -55 -61 -49 -119 6 -57 40 -91 97 -98 51 -7 102
16 119 53 10 23 9 24 -27 24 -20 0 -45 -7 -55 -15 -25 -18 -66 -2 -67 28 0 4
36 7 80 7 l80 0 0 30 c0 44 -19 77 -55 95 -44 20 -83 19 -123 -5z m106 -64 c3
-13 -5 -16 -42 -16 -50 0 -58 11 -25 34 25 17 62 7 67 -18z"/>
<path d="M6950 2530 l0 -120 35 0 35 0 0 71 c0 82 11 109 45 109 38 0 55 -35
55 -112 l0 -68 30 0 30 0 0 93 c0 67 -4 99 -15 114 -21 30 -76 39 -114 20 -26
-13 -31 -13 -31 -1 0 9 -11 14 -35 14 l-35 0 0 -120z"/>
<path d="M7294 2641 c-40 -17 -64 -60 -64 -113 0 -43 4 -54 34 -84 45 -45 108
-48 155 -8 17 14 31 32 31 40 0 19 -54 18 -85 -2 -18 -12 -28 -13 -44 -4 -12
6 -21 17 -21 25 0 12 16 15 80 15 l80 0 0 35 c0 52 -43 96 -100 101 -25 2 -55
0 -66 -5z m94 -79 c2 -8 -12 -12 -42 -12 -46 0 -53 5 -38 26 18 27 69 18 80
-14z"/>
<path d="M7800 2530 l0 -120 35 0 35 0 0 120 0 120 -35 0 -35 0 0 -120z"/>
<path d="M8060 2645 c0 -3 21 -55 47 -116 l46 -109 -26 -60 -26 -60 38 0 37 0
68 163 c38 89 71 168 74 175 3 10 -5 13 -33 10 -38 -3 -39 -4 -66 -78 -21 -56
-30 -70 -34 -55 -4 11 -17 45 -29 75 -21 51 -25 55 -59 58 -20 2 -37 1 -37 -3z"/>
<path d="M8499 2622 c-24 -21 -32 -39 -36 -73 -12 -104 75 -174 152 -123 23
15 25 15 25 0 0 -12 9 -16 35 -16 l35 0 0 120 0 120 -35 0 c-25 0 -35 -4 -35
-15 0 -14 -3 -14 -30 0 -43 22 -76 18 -111 -13z m131 -64 c13 -25 13 -31 0
-55 -29 -51 -100 -33 -100 25 0 61 70 82 100 30z"/>
<path d="M8760 2475 l0 -175 35 0 35 0 0 71 0 71 25 -16 c77 -51 164 19 152
123 -9 78 -89 127 -143 86 -25 -19 -34 -19 -34 0 0 10 -11 15 -35 15 l-35 0 0
-175z m162 98 c37 -33 11 -103 -38 -103 -24 0 -54 33 -54 60 0 26 30 60 52 60
12 0 30 -7 40 -17z"/>
<path d="M9050 2475 l0 -175 35 0 35 0 0 71 0 71 25 -16 c77 -51 164 19 152
123 -9 78 -89 127 -143 86 -25 -19 -34 -19 -34 0 0 10 -11 15 -35 15 l-35 0 0
-175z m162 98 c37 -33 11 -103 -38 -103 -24 0 -54 33 -54 60 0 26 30 60 52 60
12 0 30 -7 40 -17z"/>
<path d="M6830 2465 c-20 -24 0 -50 36 -50 26 0 29 4 29 30 0 25 -4 31 -26 33
-15 2 -31 -4 -39 -13z"/>
<path d="M8351 2461 c-23 -42 46 -71 72 -29 8 12 7 21 -2 32 -18 22 -58 20
-70 -3z"/>
</g>
</svg>
